<svg width="25" height="24" viewBox="0 0 25 24" fill="none" xmlns="http://www.w3.org/2000/svg">
<rect x="0.119385" y="-0.00012207" width="24" height="24" rx="12" fill="#D0292A"/>
<path fill-rule="evenodd" clip-rule="evenodd" d="M17.8486 15.1008C17.8041 15.4795 17.4909 15.7581 17.1173 15.7581H16.3816V8.37148H17.1173C17.5217 8.37148 17.852 8.70124 17.852 9.10605C17.8508 11.1039 17.8497 13.103 17.8486 15.1008ZM15.4807 15.7581H10.0034C9.59794 15.7581 9.26764 15.4283 9.26764 15.0247V9.10605C9.26764 8.70124 9.59794 8.37148 10.0034 8.37148H15.4807V15.7581ZM6.89633 13.9831H8.36673V10.1476H6.89633V13.9831ZM19.4898 11.6156H18.7529V9.10604C18.7529 8.20546 18.0194 7.47203 17.1174 7.47203H10.0034C9.10137 7.47203 8.36674 8.20546 8.36674 9.10604V9.24818C7.89635 9.24932 7.42596 9.25046 6.95557 9.25159C6.41912 9.29139 5.99542 9.74737 5.99542 10.2898V11.6156H4.66626C4.64576 11.6168 4.62639 11.619 4.60703 11.6202C4.38721 11.6441 4.21637 11.8362 4.21637 12.0648C4.21637 12.3127 4.41797 12.5151 4.66626 12.5151H5.99542V13.8409C5.99542 14.414 6.46354 14.8825 7.03871 14.8825H8.36674V15.0247C8.36674 15.9252 9.10137 16.6587 10.0034 16.6587H17.1174C18.0194 16.6587 18.7529 15.9252 18.7529 15.0247V12.5151H19.4898C19.7381 12.5151 19.9386 12.3127 19.9386 12.0648C19.9386 11.818 19.7381 11.6156 19.4898 11.6156Z" fill="#FFECEF"/>
</svg>
