<svg width="25" height="24" viewBox="0 0 25 24" fill="none" xmlns="http://www.w3.org/2000/svg">
<rect x="0.372803" width="24" height="24" rx="12" fill="#00935C"/>
<path fill-rule="evenodd" clip-rule="evenodd" d="M6.20956 17.8289C5.93165 17.8289 5.70614 17.6038 5.70614 17.3263V5.83594C5.70614 5.55849 5.93165 5.33334 6.20956 5.33334C6.48746 5.33334 6.71298 5.55849 6.71298 5.83594V14.7596L6.76123 14.7456C6.97194 14.6808 7.19404 14.8058 7.25554 15.0162C7.3159 15.2277 7.19517 15.4483 6.98333 15.5097L6.71298 15.5884V17.3263C6.71298 17.6038 6.48746 17.8289 6.20956 17.8289ZM18.6419 14.4691V12.1104L18.627 12.1107C18.4961 12.1107 18.3725 12.0455 18.2983 11.9376C18.275 11.9037 18.2566 11.8657 18.2443 11.8241C18.2425 11.8179 18.2409 11.8116 18.2394 11.8054L18.2386 11.8034C18.2296 11.7787 18.2217 11.7569 18.2217 11.7207C18.2217 11.6732 18.2295 11.6272 18.2443 11.5844C18.2222 11.5142 18.2191 11.4369 18.2395 11.3604C18.2907 11.1779 18.458 11.0581 18.6419 11.0674V8.73588C18.6419 8.45843 18.8675 8.23328 19.1454 8.23328C19.4233 8.23328 19.6488 8.45843 19.6488 8.73588V14.4691C19.6488 14.7466 19.4233 14.9717 19.1454 14.9717C18.8675 14.9717 18.6419 14.7466 18.6419 14.4691ZM10.5975 8.86084L11.0113 8.9743C11.0195 8.97599 11.0278 8.97798 11.036 8.98025C11.2068 9.02573 11.3321 9.18493 11.3321 9.36686C11.3321 9.37864 11.3307 9.39042 11.3285 9.4022C11.3264 9.42449 11.3223 9.44689 11.3162 9.46919C11.2813 9.59542 11.1899 9.69055 11.0769 9.73493C11.0316 9.75422 10.9829 9.76485 10.9335 9.76485C10.9202 9.76485 10.9051 9.76312 10.8896 9.76034C10.8683 9.75806 10.8466 9.75395 10.8253 9.74778L10.3856 9.62839C10.1749 9.5704 10.0496 9.35207 10.1066 9.13943C10.1658 8.92793 10.3833 8.80058 10.5975 8.86084ZM12.9413 10.3232C12.9744 10.3343 13.0065 10.3449 13.0407 10.3449C13.223 10.3449 13.3813 10.2199 13.4268 10.0493C13.4394 10.0152 13.4394 9.98108 13.4394 9.94696C13.4507 9.76503 13.3255 9.60583 13.1546 9.56035L12.3801 9.3443C12.1751 9.28744 11.9473 9.4239 11.8904 9.62858C11.8334 9.83325 11.9576 10.0607 12.1751 10.1175L12.9382 10.3222L12.9413 10.3232ZM15.0567 10.9021C15.0897 10.9135 15.125 10.9135 15.1592 10.9135C15.3414 10.9135 15.5009 10.7998 15.5464 10.6292C15.5578 10.5838 15.5578 10.561 15.5578 10.5269C15.5681 10.345 15.4439 10.1858 15.2731 10.1403L14.4986 9.92423C14.2936 9.86738 14.0658 9.99246 14.0088 10.2085C13.9508 10.4132 14.0772 10.6406 14.2936 10.6975L15.0567 10.9021ZM17.174 11.4821C17.2093 11.4934 17.2435 11.4934 17.2765 11.4934C17.4587 11.4934 17.6193 11.3797 17.6649 11.1978C17.7218 10.9931 17.5966 10.7771 17.3802 10.7088L16.6171 10.5042C16.4007 10.4473 16.1831 10.5724 16.1273 10.7884C16.092 10.8794 16.1045 10.9931 16.1615 11.0841C16.2184 11.175 16.2981 11.2433 16.4007 11.2774L17.174 11.4821ZM16.0918 12.8464C15.9107 12.8464 15.7627 12.7327 15.7046 12.5621C15.6943 12.5166 15.6943 12.4825 15.6943 12.437C15.6943 12.2665 15.8071 12.1186 15.9791 12.0618L16.9016 11.8003C17.1066 11.7434 17.3344 11.8571 17.3914 12.0732C17.4255 12.1755 17.413 12.2778 17.3674 12.3688C17.3116 12.4711 17.2205 12.5394 17.118 12.5621L16.1955 12.835C16.1613 12.8464 16.1271 12.8464 16.0918 12.8464ZM13.5531 13.5855C13.3811 13.5855 13.2228 13.4604 13.1658 13.3012C13.1544 13.2557 13.1544 13.2216 13.1544 13.1761C13.1544 13.0056 13.2797 12.8464 13.4392 12.8009L14.3617 12.5394C14.5656 12.4711 14.7945 12.5962 14.8629 12.8123C14.8857 12.9146 14.8743 13.017 14.8287 13.1079C14.7718 13.1989 14.692 13.2671 14.5895 13.3012L13.6658 13.5628C13.6328 13.5741 13.5872 13.5855 13.5531 13.5855ZM11.0246 14.3246C10.8423 14.3246 10.6943 14.2109 10.6373 14.0404C10.6248 14.0062 10.6248 13.9721 10.6248 13.938C10.6146 13.7561 10.7398 13.5855 10.9095 13.54L11.8332 13.2671C12.0485 13.2103 12.266 13.3353 12.323 13.54C12.3799 13.7561 12.266 13.9721 12.0485 14.0404L11.1271 14.3019C11.0929 14.3133 11.0576 14.3246 11.0246 14.3246ZM8.4847 15.0524C8.31386 15.0524 8.1544 14.9387 8.10885 14.7681C8.07468 14.6658 8.08607 14.5634 8.13162 14.4724C8.18857 14.3701 8.2683 14.3019 8.37081 14.2791L9.29336 14.0062C9.49838 13.9494 9.72503 14.0745 9.78311 14.2791C9.85145 14.4952 9.72503 14.7112 9.52115 14.7681L8.5986 15.041C8.56443 15.0524 8.51887 15.0524 8.4847 15.0524ZM8.76648 10.3777C8.85304 10.5176 9.00224 10.5949 9.156 10.5949C9.23687 10.5949 9.32001 10.5733 9.39291 10.5278C9.60703 10.3982 9.67537 10.1185 9.54553 9.90357L8.87126 8.80172L10.0341 8.23772C10.2608 8.12742 10.3553 7.85565 10.2448 7.62937C10.1355 7.40422 9.86671 7.31098 9.63664 7.419L8.02274 8.20247C7.90657 8.25818 7.82001 8.36052 7.7847 8.48333C7.74825 8.60614 7.76534 8.73918 7.83253 8.84834L8.76648 10.3777Z" fill="#E3F6EE"/>
</svg>
